/vscmnt/brussel_pixiu_data/_data_brussel/112/vsc11236/PredSimResults/SUBJ04opt3D/weighted/trackIG/worker_02.mot
version=1
nRows=5
nColumns=50
inDegrees=yes
endheader
                time	         pelvis_tilt	         pelvis_list	     pelvis_rotation	           pelvis_tx	           pelvis_ty	           pelvis_tz	       hip_flexion_r	     hip_adduction_r	      hip_rotation_r	        knee_angle_r	       ankle_angle_r	         mtp_angle_r	       hip_flexion_l	     hip_adduction_l	      hip_rotation_l	        knee_angle_l	       ankle_angle_l	         mtp_angle_l	    lumbar_extension	      lumbar_bending	     lumbar_rotation	 ercspn_r/activation	 intobl_r/activation	 extobl_r/activation	    abd_r/activation	    add_r/activation	hamstrings_r/activation	bifemsh_r/activation	glut_max_r/activation	iliopsoas_r/activation	rect_fem_r/activation	  vasti_r/activation	gastroc_r/activation	 soleus_r/activation	tib_ant_r/activation	 ercspn_l/activation	 intobl_l/activation	 extobl_l/activation	    abd_l/activation	    add_l/activation	hamstrings_l/activation	bifemsh_l/activation	glut_max_l/activation	iliopsoas_l/activation	rect_fem_l/activation	  vasti_l/activation	gastroc_l/activation	 soleus_l/activation	tib_ant_l/activation	
          0.00000000	         -1.40896922	          0.21598448	          8.45952231	          0.00000000	          0.88506270	         -0.01057578	         27.98751926	         -2.83110618	         -9.99395113	        -10.57482492	          3.90409174	          0.23019891	        -12.09099214	         -0.40946151	         -7.49299124	         -7.02787024	         13.83216813	         18.08044548	        -14.10153138	         -4.08810836	         -7.80212238	          0.04569469	          0.23287040	          0.02299917	          0.00999999	          0.24939710	          0.06738617	          0.01701611	          0.01629305	          0.18368586	          0.03979762	          0.05050735	          0.00999999	          0.00999999	          0.33419895	          0.01000000	          0.00999999	          0.00999999	          0.07800004	          0.00999999	          0.02981958	          0.26332877	          0.01897087	          0.01835861	          0.00999999	          0.00999999	          0.25345957	          0.24312462	          0.01224465	
          0.01346796	         -1.51909536	          0.21625951	          8.26185646	          0.01489873	          0.88273867	         -0.01022961	         27.93914595	         -2.68603391	        -10.17795175	        -11.82656956	          3.72740893	          0.22810863	        -12.75337021	         -0.50746552	         -8.13518567	         -7.50883040	         13.69559976	         19.43793747	        -13.61200817	         -3.48542544	         -7.88004946	          0.03731806	          0.22917250	          0.01878302	          0.00999999	          0.30426067	          0.06894651	          0.01389676	          0.01330625	          0.15001304	          0.03250202	          0.04124847	          0.01499316	          0.01835861	          0.32850833	          0.02447314	          0.00999999	          0.00999999	          0.06370128	          0.00999999	          0.02435313	          0.21505602	          0.01549318	          0.01499316	          0.00999999	          0.00999999	          0.24581020	          0.24915027	          0.00999999	
          0.02693592	         -1.61350698	          0.16043925	          8.02269833	          0.03023215	          0.88053755	         -0.00983942	         27.77977546	         -2.53168635	        -10.23168038	        -13.10575127	          3.48060614	          0.22250743	        -13.38477796	         -0.66863417	         -8.81344506	         -8.11982239	         13.47657602	         20.86169111	        -13.08110534	         -2.79415349	         -7.93342297	          0.03047701	          0.22317635	          0.01533976	          0.01910613	          0.24848438	          0.07229248	          0.01134926	          0.02164327	          0.12251303	          0.02654383	          0.04484391	          0.01224465	          0.01499316	          0.35178643	          0.02325426	          0.00999999	          0.00999999	          0.05202372	          0.00999999	          0.03111445	          0.17563250	          0.01265301	          0.01224465	          0.00999999	          0.00999999	          0.21488737	          0.24651089	          0.00999999	
          0.04040388	         -1.69343458	          0.04648050	          7.73254227	          0.04580672	          0.87862977	         -0.00934919	         27.57356385	         -2.33535478	        -10.37715961	        -14.28724965	          3.07940552	          0.20810924	        -13.92498167	         -0.90136666	         -9.53800419	         -8.94374902	         13.15518456	         22.33600776	        -12.53593265	         -2.01815287	         -7.95312640	          0.02489004	          0.18226423	          0.01252772	          0.02746408	          0.21488973	          0.07760658	          0.01000004	          0.01767568	          0.10005425	          0.02167788	          0.11233099	          0.00999999	          0.01224465	          0.37891966	          0.02512915	          0.00999999	          0.00999999	          0.04248686	          0.00999999	          0.03138224	          0.14343600	          0.01033349	          0.00999999	          0.00999999	          0.00999999	          0.17549476	          0.23580462	          0.00999999	
          0.05387183	         -1.75929033	         -0.11632385	          7.39753390	          0.06150770	          0.87719071	         -0.00874403	         27.30860747	         -2.10263843	        -10.65643250	        -15.38803827	          2.73734910	          0.18738725	        -14.32352209	         -1.20767824	        -10.29919593	        -10.05229515	         12.68451245	         23.86277934	        -11.99512110	         -1.17428233	         -7.93773689	          0.02407019	          0.14885202	          0.01023117	          0.04937069	          0.18902406	          0.07753710	          0.01000005	          0.01443542	          0.08171256	          0.01770395	          0.17809629	          0.00999999	          0.00999999	          0.39395444	          0.03797969	          0.00999999	          0.00999999	          0.03469828	          0.00999999	          0.02562943	          0.11714168	          0.00999999	          0.00999999	          0.00999999	          0.00999999	          0.14332351	          0.21724513	          0.00999999	
